<?xml version="1.0" encoding="UTF-8"?>
<svg xmlns="http://www.w3.org/2000/svg" xmlns:xlink="http://www.w3.org/1999/xlink" width="875.7pt" height="759.48pt" viewBox="0 0 875.7 759.48" version="1.1">
<defs>
<clipPath id="clip1">
  <path d="M 0 0 L 875.699219 0 L 875.699219 759.480469 L 0 759.480469 Z M 0 0 "/>
</clipPath>
</defs>
<g id="surface1">
<path style=" stroke:none;fill-rule:evenodd;fill:rgb(0%,0%,100%);fill-opacity:1;" d="M 153.441406 406.199219 L 132.667969 406.199219 C 134.484375 421.675781 137.953125 437.535156 143.066406 452.800781 C 143.984375 455.550781 151.667969 473.574219 153.285156 476.777344 C 162.328125 494.6875 174.332031 512.046875 189.753906 526.921875 C 196.605469 533.53125 207.847656 542.101563 216.238281 547.417969 C 228.667969 555.289063 252.796875 566.304688 267.929688 569.691406 C 269.871094 570.125 285.601563 571.757813 288.824219 571.859375 C 311.742188 572.582031 334.972656 569.203125 356.277344 558.976563 C 359.242188 557.558594 375.542969 548.894531 379.570313 545.714844 C 381.492188 544.199219 383.269531 542.40625 385.105469 541.078125 C 385.964844 540.460938 386.832031 539.9375 387.730469 539.335938 C 388.957031 538.515625 398.511719 529.65625 399.5625 528.363281 C 400.191406 527.59375 400.757813 526.84375 401.398438 526.125 C 402.746094 524.605469 404.410156 523.210938 405.992188 521.683594 C 407.285156 520.4375 415.898438 509.648438 417.632813 507.105469 C 420.660156 502.671875 423.351563 498.507813 426.996094 493.167969 C 428.101563 491.554688 429.335938 489.648438 429.546875 488.832031 C 429.617188 488.558594 429.550781 488.484375 429.1875 488.585938 C 428.710938 488.71875 426.8125 490.585938 425.703125 491.914063 C 417.101563 502.253906 399.117188 516.300781 390.96875 521.773438 C 373.621094 533.417969 358.15625 539.738281 337.695313 543.457031 C 334.753906 543.992188 329.5 544.53125 327.328125 544.519531 C 323.890625 544.503906 318.792969 544.816406 318.453125 545.070313 C 318.285156 545.191406 318.167969 545.339844 317.992188 545.433594 C 317.425781 545.742188 313.140625 544.464844 310.757813 544.273438 C 309.828125 544.199219 309.097656 544.34375 308.296875 544.402344 C 304.253906 544.703125 289.136719 540.816406 284.984375 539.578125 C 268.402344 534.628906 254.089844 525.085938 241.261719 514.121094 C 232.890625 506.964844 228.960938 502.410156 222.117188 494.101563 C 219.636719 491.089844 214.457031 483.976563 213.574219 482.371094 C 213.050781 481.417969 212.59375 480.472656 212.070313 479.523438 C 210.914063 477.414063 209.445313 475.285156 208.058594 473.089844 C 206.777344 471.070313 198.597656 454.828125 197.371094 451.878906 C 191.421875 437.582031 187.1875 422.664063 184.191406 406.199219 L 166.867188 406.199219 C 167.914063 413.011719 169.40625 422.988281 170.175781 426.25 C 170.976563 429.644531 171.980469 432.855469 172.652344 436.09375 C 173.265625 439.046875 173.605469 442.027344 174.242188 444.976563 C 176.71875 456.417969 186.984375 480.296875 191.480469 489.855469 C 191.746094 490.421875 191.769531 490.480469 191.699219 490.472656 C 191.503906 490.441406 191.507813 490.496094 191.449219 490.609375 C 191.378906 490.746094 191.179688 490.726563 190.980469 490.679688 C 190.558594 490.589844 183.3125 483.335938 182.507813 482.199219 C 168.089844 461.921875 157.957031 434.265625 153.441406 406.199219 Z M 217.09375 406.199219 L 196.472656 406.199219 C 199.648438 425.460938 203.171875 436.085938 210.3125 452.894531 C 211.898438 456.632813 214.914063 462.730469 215.753906 463.914063 C 216.042969 464.320313 216.339844 464.699219 216.632813 465.109375 C 217.964844 466.988281 219.476563 470.101563 220.945313 472.714844 C 225.511719 480.863281 235.558594 492.796875 241.515625 498.640625 C 243.464844 500.550781 255.179688 510.234375 257.644531 511.972656 C 271.894531 522.011719 291.992188 530.261719 310.792969 532.449219 C 313.699219 532.789063 326.070313 533.507813 329.097656 533.234375 C 331.273438 533.035156 333.464844 532.570313 335.378906 532.574219 C 336.167969 532.574219 336.910156 532.660156 337.695313 532.675781 C 343.632813 532.789063 363.488281 526.835938 367.8125 525.148438 C 380.921875 520.039063 392.972656 512.453125 403.617188 504.070313 C 406.421875 501.863281 413.585938 495.425781 415.074219 493.777344 C 416.296875 492.425781 417.453125 491.003906 418.601563 489.871094 C 419.246094 489.238281 419.886719 488.699219 420.65625 487.988281 C 421.734375 486.992188 426.8125 480.542969 426.664063 480.359375 C 426.285156 479.902344 425.601563 480.457031 424.535156 481.3125 C 423.34375 482.269531 416.394531 486.285156 414.074219 487.359375 C 412.996094 487.855469 411.945313 488.324219 410.992188 488.851563 C 410.425781 489.164063 409.890625 489.5 409.328125 489.824219 C 403.195313 493.355469 387.464844 498.335938 380.84375 499.734375 C 365.003906 503.089844 351.457031 502.816406 337.046875 499.019531 C 318.90625 494.238281 309.753906 489.089844 293.699219 476.871094 C 290.535156 474.464844 279.957031 465.394531 278.039063 463.449219 C 270.042969 455.316406 264.882813 448.433594 259.902344 437.511719 C 255.453125 427.753906 252.464844 417.589844 250.605469 406.585938 C 250.578125 406.421875 250.554688 406.296875 250.519531 406.199219 L 230.226563 406.199219 C 230.230469 406.21875 230.230469 406.234375 230.230469 406.25 C 232.015625 421.59375 235.40625 434.96875 239.6875 449.4375 C 239.863281 450.035156 239.878906 450.101563 239.808594 450.09375 C 239.757813 450.085938 239.691406 450.078125 239.652344 450.09375 C 239.59375 450.117188 239.597656 450.199219 239.566406 450.242188 C 239.527344 450.308594 239.417969 450.289063 239.300781 450.25 C 238.8125 450.078125 238.226563 449.472656 237.675781 448.894531 C 234.980469 446.074219 230.746094 441.453125 228.921875 438.039063 C 228.507813 437.265625 228.175781 436.5 227.742188 435.785156 C 227.472656 435.339844 227.164063 434.914063 226.871094 434.472656 C 223.09375 428.789063 218.777344 413.609375 217.09375 406.199219 Z M 281.484375 406.199219 L 262.699219 406.199219 C 262.613281 406.277344 262.613281 406.457031 262.617188 406.644531 C 262.632813 407.527344 265.527344 417.464844 266.558594 420.171875 C 274.246094 440.363281 281.722656 452.6875 299.460938 466.914063 C 309.429688 474.914063 322.226563 481.136719 333.710938 484.847656 C 336.09375 485.617188 345.53125 487.726563 347.179688 487.859375 C 349.128906 488.011719 351.148438 488.027344 352.808594 488.332031 C 353.277344 488.417969 353.71875 488.527344 354.1875 488.621094 C 355.632813 488.914063 361.863281 489.183594 364.003906 489.042969 C 366.3125 488.890625 368.480469 488.59375 370.421875 488.621094 C 371.421875 488.636719 372.359375 488.734375 373.359375 488.746094 C 379.128906 488.8125 398.027344 483.519531 404.015625 481.246094 C 409.863281 479.027344 414.378906 476.320313 420.011719 473.234375 C 421.148438 472.609375 421.53125 472.371094 421.488281 471.742188 C 421.476563 471.578125 421.40625 471.566406 420.785156 471.644531 C 401.328125 474.125 386.878906 474.226563 368.15625 468.347656 C 355.046875 464.234375 341.554688 454.378906 333.914063 444.851563 C 328.601563 438.226563 322.398438 426.484375 319.292969 418.019531 C 317.914063 414.269531 316.757813 410.3125 315.585938 406.425781 C 315.5625 406.339844 315.539063 406.265625 315.515625 406.199219 L 289.464844 406.199219 C 289.464844 406.289063 289.484375 406.402344 289.511719 406.542969 C 290.964844 414.238281 292.773438 420.140625 295.304688 428.628906 C 295.484375 429.226563 295.496094 429.292969 295.425781 429.28125 C 295.375 429.273438 295.3125 429.269531 295.273438 429.285156 C 295.210938 429.308594 295.214844 429.390625 295.1875 429.433594 C 295.148438 429.496094 295.042969 429.476563 294.925781 429.429688 C 294.28125 429.171875 293.304688 428.097656 292.605469 427.386719 C 292.199219 426.972656 291.886719 426.679688 291.570313 426.34375 C 290.886719 425.609375 286.269531 417.539063 285.316406 415.40625 C 283.957031 412.367188 282.828125 409.570313 281.679688 406.613281 C 281.609375 406.429688 281.550781 406.296875 281.484375 406.199219 Z M 158.269531 352.226563 C 158.269531 352.285156 158.421875 352.230469 158.5 352.234375 C 158.617188 352.246094 158.546875 352.476563 158.585938 352.605469 C 158.625 352.75 158.847656 352.761719 159.035156 352.722656 C 159.269531 352.675781 159.457031 352.550781 159.652344 352.402344 C 161.363281 351.105469 169.179688 342.078125 170.179688 340.628906 C 171.953125 338.0625 174.894531 332.214844 175.46875 329.632813 C 176.179688 326.4375 175.875 320.652344 175.148438 318.164063 C 174.535156 316.058594 167.53125 303.785156 166.390625 300.628906 C 165.929688 299.351563 165.6875 298.191406 165.507813 296.882813 C 165.359375 295.789063 165.738281 290.871094 166.027344 290.128906 C 166.359375 289.285156 168.214844 286.113281 167.382813 285.597656 C 166.976563 285.34375 166.074219 286.140625 165.238281 286.894531 C 155.191406 295.980469 149.269531 304.382813 149.324219 317.429688 C 149.355469 325.21875 151.726563 327.757813 155.859375 335.425781 C 157.582031 338.625 158.410156 341.953125 158.46875 345.839844 C 158.496094 347.9375 158.261719 350.628906 158.269531 352.226563 Z M 222.6875 353.449219 C 222.730469 353.6875 223.335938 353.289063 223.871094 352.832031 C 229.734375 347.820313 240.574219 334.652344 240.351563 325.40625 C 240.289063 322.882813 239.476563 318.917969 238.953125 317.414063 C 237.929688 314.472656 231.949219 304.183594 230.84375 301.066406 C 229.609375 297.609375 229.050781 292.878906 230.550781 288.878906 C 231 287.683594 231.769531 286.308594 231.601563 286.027344 C 231.511719 285.875 231.183594 285.894531 230.828125 285.992188 C 230.316406 286.132813 225.054688 290.761719 224.042969 291.964844 C 218.628906 298.375 213.949219 305.976563 213.65625 315.171875 C 213.527344 319.265625 214.171875 324.121094 215.691406 327.203125 C 217.523438 330.90625 221.234375 337.4375 221.78125 339.40625 C 221.925781 339.933594 222.941406 346.039063 222.929688 347.796875 C 222.910156 349.761719 222.425781 352.058594 222.6875 353.449219 Z M 285.042969 354.027344 C 285.191406 354.210938 287.433594 352.171875 288.058594 351.289063 C 290.320313 348.101563 293.707031 344.96875 295.863281 342.347656 C 299 338.527344 302.320313 331.070313 302.488281 325.699219 C 302.609375 321.945313 301.394531 317.414063 299.515625 313.863281 C 295.21875 305.726563 292.355469 302.308594 291.980469 294.917969 C 291.910156 293.523438 292.046875 291.820313 292.394531 290.667969 C 293.167969 288.078125 294.910156 285.695313 293.421875 286.121094 C 292.90625 286.269531 287.546875 291 286.410156 292.3125 C 281.265625 298.253906 276.914063 305.570313 276.308594 314.28125 C 275.9375 319.621094 276.980469 325.425781 279.339844 330.160156 C 280.617188 332.722656 282.445313 335.46875 283.421875 337.753906 C 283.820313 338.6875 284.078125 339.546875 284.347656 340.460938 C 284.761719 341.847656 285.421875 346.992188 285.304688 347.914063 C 285.015625 350.214844 284.824219 353.757813 285.042969 354.027344 Z M 341.164063 441.21875 C 347.328125 441.21875 372.867188 441.21875 372.867188 441.21875 C 372.867188 441.21875 372.847656 403.203125 372.847656 402.53125 C 369.738281 393.78125 360.125 389.207031 351.371094 392.3125 C 346.425781 394.070313 342.910156 397.585938 341.15625 402.535156 C 341.144531 402.761719 341.136719 403.054688 341.132813 403.414063 Z M 609.929688 376.90625 L 567.898438 376.90625 C 567.886719 376.984375 567.875 377.074219 567.867188 377.175781 C 566.191406 394.617188 565.03125 404.132813 559.503906 419.027344 C 555.765625 429.089844 548.769531 442.441406 541.121094 450.242188 C 533.046875 458.476563 520.371094 466.328125 509.921875 469.429688 C 497.425781 473.136719 487.691406 474.007813 474.296875 473.820313 C 467.636719 473.726563 463.046875 473.324219 456.464844 472.003906 C 455.851563 471.882813 455.78125 471.878906 455.777344 471.992188 L 455.773438 472.113281 C 455.765625 472.226563 455.824219 472.277344 456.34375 472.625 C 468.488281 480.757813 486.566406 486.441406 498.441406 488.417969 C 509.632813 490.28125 518.855469 490.484375 530.324219 488.972656 C 547.035156 486.765625 558.964844 481.683594 573.851563 471.9375 C 589.980469 461.382813 603.957031 444.558594 609.726563 426.742188 C 610.605469 424.03125 611.394531 421.089844 612.328125 418.699219 C 612.664063 417.832031 613.019531 417.039063 613.335938 416.199219 C 615.4375 410.644531 616.378906 400.667969 617.015625 394.585938 C 617.113281 393.660156 617.210938 392.765625 617.136719 391.808594 C 617.0625 390.835938 616.8125 389.800781 616.882813 389.011719 C 616.910156 388.683594 616.996094 388.394531 617.070313 388.078125 C 617.355469 386.820313 617.441406 381.148438 617.519531 377.679688 C 617.535156 377.054688 617.46875 376.984375 616.84375 376.976563 Z M 681.320313 376.90625 L 631.464844 376.90625 C 631.050781 391.316406 630.945313 395.296875 627.589844 410.347656 C 626.210938 416.523438 622.007813 433.050781 618.441406 439.867188 C 616.925781 442.769531 614.828125 445.660156 613.792969 448.25 C 612.699219 450.988281 612.984375 451.222656 609.539063 455.417969 C 607.898438 457.414063 606.132813 459.214844 604.832031 461.128906 C 604.285156 461.933594 603.820313 462.757813 603.28125 463.570313 C 597.449219 472.320313 574.9375 487.363281 568.367188 490.949219 C 559.15625 495.972656 551.164063 498.6875 541.285156 500.574219 C 537.941406 501.210938 531.480469 501.992188 529.957031 501.941406 C 529.347656 501.921875 528.765625 501.875 528.152344 501.867188 C 525.992188 501.828125 523.46875 502.265625 521.027344 502.488281 C 515.015625 503.042969 500.058594 501.714844 493.542969 499.921875 C 491.042969 499.230469 488.511719 498.226563 486.210938 497.867188 C 485.578125 497.769531 484.96875 497.71875 484.367188 497.558594 C 483.527344 497.328125 482.703125 496.886719 481.859375 496.523438 C 480.039063 495.730469 477.9375 495.257813 476.023438 494.765625 C 474.953125 494.488281 454.859375 484.429688 453.625 483.550781 C 451.085938 481.746094 447.132813 479.359375 447.101563 479.613281 C 446.980469 480.648438 451.652344 485.410156 453.207031 487.027344 C 466.113281 500.429688 472.070313 506.640625 487.6875 515.824219 C 504.277344 525.578125 517.414063 529.855469 537.117188 533.011719 C 537.738281 533.109375 537.804688 533.113281 537.808594 533.046875 L 537.8125 532.96875 C 537.816406 532.898438 537.886719 532.886719 538.511719 532.867188 C 539.210938 532.847656 539.886719 532.914063 540.59375 533.007813 C 542.808594 533.308594 545.769531 533.835938 547.054688 533.75 C 547.542969 533.71875 547.976563 533.632813 548.453125 533.578125 C 550.453125 533.347656 553.230469 533.648438 555.824219 533.660156 C 563.429688 533.695313 577.328125 530.847656 583.90625 528.835938 C 610.277344 520.765625 627.746094 508.96875 645.121094 487.359375 C 655.734375 474.160156 663.832031 459.378906 670.0625 442.078125 C 677.535156 421.308594 680.308594 399.199219 681.320313 376.90625 Z M 744.867188 376.90625 L 694.976563 376.90625 C 694.972656 376.929688 694.972656 376.949219 694.96875 376.972656 C 693.917969 390.382813 692.550781 404.570313 689.679688 417.175781 C 684.636719 439.316406 678.097656 456.71875 667.347656 475.703125 C 665.523438 478.921875 663.710938 482.015625 661.726563 485.089844 C 660.011719 487.742188 651.765625 498.664063 649.679688 501.035156 C 633.480469 519.5 612.074219 534.738281 588.246094 541.195313 C 581.539063 543.011719 573.449219 544.617188 567.132813 545.277344 C 564.742188 545.523438 550.917969 545.625 548.550781 545.410156 C 514.894531 542.355469 488.769531 527.976563 463.359375 506.164063 C 459.976563 503.265625 453.679688 497.257813 451.945313 495.285156 C 449.71875 492.753906 446.695313 489.242188 445.570313 488.359375 C 445.378906 488.210938 445.1875 488.070313 445.117188 488.109375 C 445.039063 488.148438 445.097656 488.390625 445.171875 488.636719 C 445.394531 489.414063 453.980469 502.8125 455.75 505.144531 C 471.199219 525.503906 485.65625 541.140625 508.875 554.214844 C 528.6875 565.371094 551.894531 572.347656 574.605469 572.730469 C 591.113281 573.007813 603.175781 572.34375 616.785156 567.925781 C 631.464844 563.160156 644.492188 558.019531 657.980469 549.585938 C 673.441406 539.921875 691.078125 524.199219 701.183594 511.359375 C 712.273438 497.265625 721.472656 481.078125 728.488281 464.058594 C 740.339844 435.296875 743.871094 408.46875 744.867188 376.90625 Z M 722.636719 354.273438 L 722.640625 354.171875 C 722.640625 354.125 722.644531 354.117188 722.691406 354.121094 L 722.796875 354.125 C 722.863281 354.128906 722.863281 354.058594 722.789063 353.4375 C 722.6875 352.5625 722.695313 351.679688 722.691406 350.808594 C 722.644531 344.84375 722.695313 341.984375 724.867188 337.285156 C 726.089844 334.648438 728.117188 331.898438 729.382813 329.363281 C 733.496094 321.09375 731.59375 308.195313 726.695313 300.027344 C 724.421875 296.230469 721.953125 293.453125 719.097656 290.65625 C 718.046875 289.632813 714.066406 285.847656 713.476563 286.476563 C 713.066406 286.910156 714.378906 288.722656 714.84375 289.78125 C 716.113281 292.679688 715.757813 298.039063 714.8125 301.375 C 713.703125 305.28125 709.789063 311.230469 707.964844 314.996094 C 704.039063 323.113281 704.351563 329.027344 708.402344 337.277344 C 711.035156 342.632813 711.851563 343.203125 716.160156 348.390625 C 717.566406 350.085938 721.828125 354.238281 722.261719 354.335938 C 722.34375 354.351563 722.425781 354.363281 722.507813 354.359375 C 722.617188 354.351563 722.632813 354.34375 722.636719 354.273438 Z M 659.097656 354.183594 C 659.835938 344.746094 658.199219 343.199219 661.691406 336.71875 C 665.953125 328.8125 667.972656 327.089844 667.941406 317.734375 C 667.917969 311.800781 666.371094 306.515625 663.6875 301.15625 C 661.691406 297.179688 660.480469 295.492188 656.222656 291.328125 C 654.261719 289.410156 651.703125 287.160156 650.734375 286.640625 C 650.597656 286.5625 650.472656 286.507813 650.394531 286.558594 C 649.835938 286.917969 651.367188 290.1875 651.5 290.546875 C 654.894531 299.632813 646.835938 310.09375 642.863281 318.933594 C 642.480469 319.792969 642.183594 320.75 642.160156 321.824219 C 642.132813 323.238281 642.238281 325.4375 642 325.621094 C 641.953125 325.65625 641.902344 325.671875 641.863281 325.714844 C 641.710938 325.871094 641.695313 326.402344 641.710938 326.90625 C 641.871094 331.582031 645.785156 339.277344 647.96875 342.292969 C 649.484375 344.386719 655.234375 350.734375 657.539063 353.269531 C 657.792969 353.550781 658.023438 353.804688 658.574219 354.082031 C 658.804688 354.195313 659.085938 354.3125 659.097656 354.183594 Z M 588.378906 286.6875 C 588.308594 286.628906 588.121094 286.613281 588.007813 286.671875 C 587.453125 286.945313 588.65625 289.253906 588.914063 289.953125 C 590.453125 294.179688 589.9375 298.90625 588.617188 302.234375 C 587.191406 305.839844 583.84375 310.875 581.921875 315.164063 C 577.234375 325.617188 579.265625 333.386719 586.246094 343.125 C 587.484375 344.851563 588.785156 346.464844 590.246094 348.21875 C 592.089844 350.4375 596.402344 354.855469 596.6875 354.816406 C 596.921875 354.785156 596.90625 354.023438 596.78125 352.628906 C 596.320313 347.4375 596.578125 342.421875 598.445313 338.136719 C 599.703125 335.242188 601.9375 332.277344 603.335938 329.53125 C 608.515625 319.367188 604.957031 304.320313 597.492188 295.425781 C 595.003906 292.460938 591.8125 289.535156 588.378906 286.6875 Z M 553.332031 376.863281 L 324.273438 376.863281 L 324.273438 385.984375 L 553.332031 385.984375 Z M 382.222656 441.21875 C 388.382813 441.21875 413.925781 441.21875 413.925781 441.21875 C 413.925781 441.21875 413.902344 403.203125 413.902344 402.53125 C 410.796875 393.78125 401.183594 389.207031 392.429688 392.3125 C 387.480469 394.070313 383.96875 397.585938 382.210938 402.535156 C 382.203125 402.761719 382.195313 403.054688 382.1875 403.414063 Z M 424.4375 441.21875 C 430.601563 441.21875 456.140625 441.21875 456.140625 441.21875 C 456.140625 441.21875 456.121094 403.203125 456.121094 402.53125 C 453.011719 393.78125 443.398438 389.207031 434.648438 392.3125 C 429.699219 394.070313 426.1875 397.585938 424.429688 402.535156 C 424.421875 402.761719 424.410156 403.054688 424.40625 403.414063 Z M 466.234375 441.21875 C 472.394531 441.21875 497.9375 441.21875 497.9375 441.21875 C 497.9375 441.21875 497.914063 403.203125 497.914063 402.53125 C 494.808594 393.78125 485.195313 389.207031 476.441406 392.3125 C 471.492188 394.070313 467.980469 397.585938 466.222656 402.535156 C 466.214844 402.761719 466.207031 403.054688 466.199219 403.414063 Z M 506.902344 441.21875 C 513.0625 441.21875 538.605469 441.21875 538.605469 441.21875 C 538.605469 441.21875 538.582031 403.203125 538.582031 402.53125 C 535.472656 393.78125 525.859375 389.207031 517.109375 392.3125 C 512.160156 394.070313 508.648438 397.585938 506.890625 402.535156 C 506.882813 402.761719 506.875 403.054688 506.867188 403.414063 Z M 359.234375 340.941406 C 356.222656 343.890625 353.152344 345.867188 349.222656 347.394531 C 342.4375 350.945313 337.140625 356.179688 334.945313 362.570313 C 334.273438 364.53125 333.683594 367.929688 333.15625 370.628906 C 333.148438 370.675781 333.140625 370.714844 333.132813 370.753906 L 390.109375 370.753906 C 390.101563 370.675781 390.089844 370.582031 390.070313 370.472656 C 388.59375 362.234375 387.027344 358.5 380.886719 352.890625 C 377.425781 349.730469 376.261719 349.128906 373.53125 347.40625 C 369.835938 345.871094 366.988281 343.875 364.289063 340.921875 C 363.890625 340.546875 363.519531 340.179688 363.183594 339.824219 C 362.976563 339.605469 362.863281 339.46875 362.820313 339.34375 C 363.28125 338.125 363.3125 336.945313 362.910156 335.703125 C 362.914063 335.6875 362.921875 335.667969 362.929688 335.648438 C 362.941406 335.625 362.957031 335.597656 362.972656 335.570313 C 365.613281 334.5625 366.996094 331.699219 366.144531 329.003906 C 366.121094 328.980469 366.097656 328.957031 366.074219 328.933594 C 365.988281 328.855469 365.921875 328.816406 365.859375 328.816406 C 365.738281 330.996094 364.089844 332.722656 361.914063 332.941406 C 359.503906 333.1875 357.347656 331.425781 357.101563 329.015625 C 357.082031 329.027344 357.058594 329.042969 357.035156 329.0625 C 356.285156 331.9375 357.839844 334.871094 360.640625 335.867188 C 360.644531 335.875 360.648438 335.882813 360.648438 335.890625 C 360.667969 335.929688 360.679688 335.96875 360.6875 336.011719 C 360.464844 337.164063 360.507813 338.183594 360.824219 339.3125 C 360.652344 339.695313 360.046875 340.28125 359.234375 340.941406 Z M 438.308594 340.941406 C 435.296875 343.890625 432.226563 345.867188 428.296875 347.394531 C 421.511719 350.945313 416.214844 356.179688 414.019531 362.570313 C 413.347656 364.53125 412.757813 367.929688 412.230469 370.628906 C 412.21875 370.675781 412.214844 370.714844 412.207031 370.753906 L 469.183594 370.753906 C 469.175781 370.675781 469.160156 370.582031 469.144531 370.472656 C 467.667969 362.234375 466.101563 358.5 459.957031 352.890625 C 456.5 349.730469 455.335938 349.128906 452.605469 347.40625 C 448.910156 345.871094 446.0625 343.875 443.363281 340.921875 C 442.964844 340.546875 442.589844 340.179688 442.257813 339.824219 C 442.050781 339.605469 441.9375 339.46875 441.894531 339.34375 C 442.355469 338.125 442.386719 336.945313 441.984375 335.703125 C 441.988281 335.6875 441.996094 335.667969 442.003906 335.648438 C 442.015625 335.625 442.03125 335.597656 442.046875 335.570313 C 444.6875 334.5625 446.066406 331.699219 445.21875 329.003906 C 445.195313 328.980469 445.171875 328.957031 445.144531 328.933594 C 445.0625 328.855469 444.992188 328.816406 444.933594 328.816406 C 444.8125 330.996094 443.160156 332.722656 440.988281 332.941406 C 438.574219 333.1875 436.421875 331.425781 436.175781 329.015625 C 436.15625 329.027344 436.132813 329.042969 436.109375 329.0625 C 435.359375 331.9375 436.910156 334.871094 439.714844 335.867188 C 439.71875 335.875 439.71875 335.882813 439.722656 335.890625 C 439.742188 335.929688 439.753906 335.96875 439.761719 336.011719 C 439.539063 337.164063 439.582031 338.183594 439.898438 339.3125 C 439.726563 339.695313 439.117188 340.28125 438.308594 340.941406 Z M 515.863281 340.941406 C 512.851563 343.890625 509.78125 345.867188 505.851563 347.394531 C 499.0625 350.945313 493.769531 356.179688 491.574219 362.570313 C 490.902344 364.53125 490.3125 367.929688 489.78125 370.628906 C 489.773438 370.675781 489.765625 370.714844 489.761719 370.753906 L 546.738281 370.753906 C 546.730469 370.675781 546.714844 370.582031 546.695313 370.472656 C 545.222656 362.234375 543.65625 358.5 537.511719 352.890625 C 534.054688 349.730469 532.886719 349.128906 530.160156 347.40625 C 526.464844 345.871094 523.617188 343.875 520.917969 340.921875 C 520.519531 340.546875 520.144531 340.179688 519.8125 339.824219 C 519.605469 339.605469 519.492188 339.46875 519.449219 339.34375 C 519.910156 338.125 519.9375 336.945313 519.539063 335.703125 C 519.542969 335.6875 519.550781 335.667969 519.558594 335.648438 C 519.570313 335.625 519.585938 335.597656 519.601563 335.570313 C 522.238281 334.5625 523.621094 331.699219 522.773438 329.003906 C 522.75 328.980469 522.726563 328.957031 522.699219 328.933594 C 522.617188 328.855469 522.546875 328.816406 522.488281 328.816406 C 522.363281 330.996094 520.714844 332.722656 518.542969 332.941406 C 516.128906 333.1875 513.976563 331.425781 513.730469 329.015625 C 513.710938 329.027344 513.6875 329.042969 513.664063 329.0625 C 512.914063 331.9375 514.464844 334.871094 517.265625 335.867188 C 517.269531 335.875 517.273438 335.882813 517.277344 335.890625 C 517.296875 335.929688 517.308594 335.96875 517.316406 336.011719 C 517.09375 337.164063 517.136719 338.183594 517.453125 339.3125 C 517.28125 339.695313 516.671875 340.28125 515.863281 340.941406 Z M 499.855469 301.046875 L 376.460938 301.046875 L 376.460938 316.753906 L 499.855469 316.753906 Z M 386.558594 293.601563 L 489.675781 293.601563 C 488.289063 285.507813 486.144531 279.488281 482.363281 274.214844 C 476.59375 267.207031 470.664063 262.128906 462.855469 257.5 C 454.382813 251.976563 448.414063 249 442.214844 243.289063 C 440.984375 242.417969 440.109375 241.441406 439.371094 240.132813 C 439.371094 237.867188 439.371094 232.171875 439.371094 232.171875 L 438.367188 232.171875 C 438.367188 232.171875 438.367188 237.867188 438.367188 240.132813 C 437.546875 241.636719 436.550781 242.746094 435.148438 243.730469 C 428.171875 248.71875 417.671875 254.3125 410.425781 258.035156 C 404.128906 261.566406 399.359375 265.574219 394.796875 271.175781 C 390.074219 278.007813 387.988281 284.277344 386.578125 293.46875 C 386.570313 293.515625 386.566406 293.558594 386.558594 293.601563 Z M 150.171875 376.640625 L 130.511719 376.640625 L 131.195313 387.621094 L 151.085938 387.621094 Z M 131.800781 399.738281 L 152.457031 399.738281 L 151.957031 394.011719 L 131.425781 394.011719 Z M 182.003906 387.621094 L 180.652344 376.640625 L 164.308594 376.640625 L 165.011719 387.621094 Z M 183.535156 399.738281 L 182.566406 394.023438 L 165.246094 394.011719 L 165.628906 399.738281 Z M 214.011719 376.640625 L 194.566406 376.640625 L 195.246094 387.621094 L 214.914063 387.621094 Z M 195.839844 399.738281 L 216.269531 399.738281 L 215.777344 394.011719 L 195.472656 394.011719 Z M 247.871094 387.621094 L 246.382813 376.640625 L 228.363281 376.640625 L 229.136719 387.621094 Z M 249.558594 399.738281 L 248.488281 394.023438 L 229.394531 394.011719 L 229.816406 399.738281 Z M 277.9375 387.621094 L 276.515625 376.640625 L 259.34375 376.640625 L 260.085938 387.621094 Z M 279.542969 399.738281 L 278.527344 394.023438 L 260.328125 394.011719 L 260.730469 399.738281 Z M 311.058594 376.640625 L 286.363281 376.640625 L 287.226563 387.621094 L 312.207031 387.621094 Z M 287.980469 399.738281 L 313.929688 399.738281 L 313.304688 394.011719 L 287.511719 394.011719 Z M 420.113281 338.734375 C 420.113281 332.070313 410.84375 326.667969 399.410156 326.667969 C 387.976563 326.667969 378.703125 332.070313 378.703125 338.734375 C 378.703125 345.398438 387.976563 350.800781 399.410156 350.800781 C 410.84375 350.800781 420.113281 345.398438 420.113281 338.734375 Z M 496.328125 338.734375 C 496.328125 332.070313 487.0625 326.667969 475.625 326.667969 C 464.191406 326.667969 454.921875 332.070313 454.921875 338.734375 C 454.921875 345.398438 464.191406 350.800781 475.625 350.800781 C 487.0625 350.800781 496.328125 345.398438 496.328125 338.734375 Z M 350.894531 191.402344 L 340.742188 191.402344 L 340.742188 201 L 342.851563 201 L 342.851563 206.164063 L 345.480469 206.164063 L 345.480469 209.257813 L 347.789063 209.257813 L 347.789063 210.882813 L 351.078125 210.882813 L 351.132813 216.835938 L 350.976563 240.621094 L 350.984375 244.464844 L 340.742188 244.464844 L 340.742188 254.066406 L 342.851563 254.066406 L 342.851563 259.230469 L 345.480469 259.230469 L 345.480469 262.324219 L 347.789063 262.324219 L 347.789063 263.945313 L 351.03125 263.945313 L 351.042969 269.046875 L 350.992188 318.734375 C 350.992188 319.316406 351 319.414063 351.058594 319.421875 L 366.558594 307.160156 C 366.589844 307.03125 366.59375 306.871094 366.589844 306.652344 C 366.445313 294.542969 366.410156 279.117188 366.738281 266.53125 L 366.734375 263.945313 L 369.980469 263.945313 L 369.980469 262.324219 L 372.285156 262.324219 L 372.285156 259.230469 L 374.917969 259.230469 L 374.917969 254.066406 L 377.023438 254.066406 L 377.023438 244.464844 L 366.722656 244.464844 L 366.71875 241.433594 L 366.757813 219.152344 L 366.71875 210.882813 L 369.980469 210.882813 L 369.980469 209.257813 L 372.285156 209.257813 L 372.285156 206.164063 L 374.917969 206.164063 L 374.917969 201 L 377.023438 201 L 377.023438 191.402344 L 366.628906 191.402344 L 366.605469 186.5625 C 366.617188 179.003906 366.628906 169.390625 366.527344 164.726563 L 358.023438 128.476563 L 350.859375 164.714844 C 350.691406 170.871094 350.777344 180.492188 350.847656 186.5625 Z M 523.789063 191.402344 L 533.9375 191.402344 L 533.9375 201 L 531.832031 201 L 531.832031 206.164063 L 529.199219 206.164063 L 529.199219 209.257813 L 526.894531 209.257813 L 526.894531 210.882813 L 523.605469 210.882813 L 523.550781 216.835938 L 523.707031 240.621094 L 523.699219 244.464844 L 533.9375 244.464844 L 533.9375 254.066406 L 531.832031 254.066406 L 531.832031 259.230469 L 529.199219 259.230469 L 529.199219 262.324219 L 526.894531 262.324219 L 526.894531 263.945313 L 523.652344 263.945313 L 523.640625 269.046875 L 523.6875 318.734375 C 523.6875 319.015625 523.6875 319.1875 523.679688 319.285156 L 508.125 307.175781 C 508.09375 307.042969 508.089844 306.882813 508.09375 306.652344 C 508.234375 294.542969 508.269531 279.117188 507.945313 266.53125 L 507.945313 263.945313 L 504.703125 263.945313 L 504.703125 262.324219 L 502.394531 262.324219 L 502.394531 259.230469 L 499.765625 259.230469 L 499.765625 254.066406 L 497.65625 254.066406 L 497.65625 244.464844 L 507.960938 244.464844 L 507.964844 241.433594 L 507.925781 219.152344 L 507.964844 210.882813 L 504.703125 210.882813 L 504.703125 209.257813 L 502.394531 209.257813 L 502.394531 206.164063 L 499.765625 206.164063 L 499.765625 201 L 497.65625 201 L 497.65625 191.402344 L 508.054688 191.402344 L 508.078125 186.5625 C 508.066406 179.003906 508.054688 169.390625 508.15625 164.726563 L 516.660156 128.476563 L 523.820313 164.714844 C 523.992188 170.871094 523.90625 180.492188 523.835938 186.5625 L 523.789063 191.402344 "/>
<g clip-path="url(#clip1)" clip-rule="nonzero">
<path style=" stroke:none;fill-rule:evenodd;fill:rgb(0%,0%,100%);fill-opacity:1;" d="M 94.894531 614.304688 C 105.320313 625.617188 114.640625 634.695313 126.226563 644.820313 C 135.878906 653.296875 144.277344 660.167969 154.5 667.945313 C 177.222656 685.167969 197.875 697.820313 223.539063 710.238281 C 237.625 717.035156 249.785156 722.21875 264.441406 727.675781 C 340.46875 755.976563 410.675781 764.792969 491.34375 756.167969 C 533.605469 751.664063 568.871094 743.375 608.714844 728.585938 C 652.597656 712.289063 687.71875 693.070313 725.097656 664.890625 C 756.65625 641.109375 783.46875 614.566406 806.253906 582.742188 C 815.21875 570.203125 822.238281 559.21875 829.855469 545.816406 C 842.320313 523.980469 851.027344 504.484375 858.976563 480.632813 C 876.550781 427.660156 880.003906 378.84375 870.050781 323.921875 C 864.527344 293.804688 856.683594 268.914063 843.945313 241.070313 C 827.539063 205.199219 807.261719 173.460938 780.804688 144.71875 C 754.109375 115.714844 722 89.792969 688.128906 69.054688 C 662.777344 53.578125 640.144531 42.476563 612.394531 31.898438 C 553.765625 9.648438 500.601563 -0.0273438 437.894531 0.144531 C 413.496094 0.183594 392.890625 1.59375 368.714844 4.875 C 288.953125 15.75 214.476563 45.945313 150.601563 94.128906 C 119.007813 117.964844 92.25 144.429688 69.449219 176.277344 C 60.484375 188.820313 53.460938 199.804688 45.84375 213.203125 C 33.382813 235.039063 24.671875 254.535156 16.722656 278.390625 C -0.851563 331.363281 -4.300781 380.179688 5.648438 435.101563 C 11.175781 465.21875 19.015625 490.105469 31.757813 517.949219 C 48.238281 553.988281 68.386719 585.484375 94.894531 614.304688 Z M 863.542969 401.917969 C 865.421875 375.089844 864.167969 352.199219 859.367188 325.734375 C 843.804688 243.09375 805.964844 177.285156 742.375 122.257813 C 700.761719 86.035156 660.066406 61.601563 608.539063 41.886719 C 509.441406 4.136719 398.242188 0.960938 296.828125 31.539063 C 243.824219 47.628906 201.347656 69.246094 157.144531 102.625 C 114.367188 134.753906 81.625 171.671875 55.335938 218.304688 L 55.207031 218.527344 C 29.386719 262.902344 16.09375 305.578125 12.144531 356.765625 C 8.046875 412.457031 19.46875 463.871094 41.683594 513.390625 C 63.8125 563.042969 92.050781 600.964844 133.277344 636.394531 L 133.5 636.59375 C 174.164063 672.664063 217.246094 698.460938 268.222656 717.332031 C 342.597656 745.011719 411.273438 753.636719 490.183594 745.199219 C 576.960938 736.117188 648.621094 708.140625 718.59375 656.019531 C 762.375 623.46875 793.632813 587.945313 820.351563 540.382813 C 845.125 496.59375 859.664063 452.214844 863.542969 401.917969 "/>
</g>
<path style=" stroke:none;fill-rule:evenodd;fill:rgb(0%,0%,100%);fill-opacity:1;" d="M 778.644531 395.144531 C 783.886719 304.207031 742.207031 247.648438 732.476563 234.464844 C 718.945313 216.179688 705.59375 202.121094 688.027344 187.664063 L 687.820313 187.488281 C 653.953125 157.746094 620.769531 137.667969 578.703125 121.472656 C 517.839844 98.457031 461.515625 91.203125 396.804688 98.050781 C 328.175781 105.234375 263.511719 128.859375 208.824219 169.988281 C 177.898438 193.304688 155.320313 217.875 134.699219 250.65625 C 124.050781 267.65625 116.609375 283 109.855469 301.886719 C 102.457031 322.554688 98.554688 340.882813 96.890625 362.773438 C 96.089844 381.46875 96.929688 397.335938 99.707031 415.84375 C 105.84375 456.929688 119.613281 490.539063 144.066406 524.117188 C 157.558594 542.554688 170.820313 556.785156 188.269531 571.53125 L 188.332031 571.585938 C 247.527344 622.382813 316.820313 654.246094 393.742188 661.710938 C 423.355469 664.585938 450.425781 663.996094 479.964844 660.675781 C 584.183594 648.960938 687.824219 597.496094 742.859375 504.734375 C 763.605469 469.539063 774.621094 435.800781 778.644531 395.144531 Z M 770.160156 394.515625 C 771.492188 372.316406 770.234375 353.394531 765.984375 331.566406 C 755.191406 275.84375 725.460938 229.824219 682.667969 194.265625 L 682.230469 193.898438 C 649.425781 164.542969 616.945313 144.886719 575.722656 129.4375 L 575.644531 129.40625 C 547.378906 118.507813 522.449219 111.96875 492.46875 107.585938 C 460.515625 103.066406 429.714844 103.148438 397.667969 106.511719 C 329.460938 113.664063 267.785156 136.542969 213.929688 176.789063 C 184.609375 198.703125 161.246094 224.007813 141.9375 255.117188 L 141.878906 255.214844 C 122.554688 285.894531 107.589844 325.511719 105.382813 363.269531 C 104.359375 380.699219 105.6875 397.441406 108.132813 414.6875 C 113.582031 454.386719 126.914063 486.921875 150.882813 519.03125 L 150.964844 519.140625 C 163.898438 537.0625 176.746094 550.84375 193.714844 565.003906 L 193.875 565.136719 C 276.066406 635.617188 372.210938 664.847656 478.945313 652.234375 C 503.636719 649.367188 524.296875 645.207031 548.171875 638.289063 C 597.53125 623.902344 644.21875 599.324219 682.542969 564.878906 C 704.453125 545.175781 720.46875 525.691406 735.554688 500.382813 C 755.050781 467.789063 766.816406 432.386719 770.160156 394.515625 "/>
<path style=" stroke:none;fill-rule:evenodd;fill:rgb(49.804688%,0%,0%);fill-opacity:1;" d="M 102.769531 173.382813 L 134.960938 141.589844 L 151.949219 149.996094 L 148.792969 156.824219 C 145.898438 155.585938 143.257813 154.894531 140.871094 154.746094 C 138.484375 154.597656 136.402344 154.992188 134.621094 155.9375 C 132.84375 156.878906 131.039063 158.253906 129.214844 160.054688 L 123.328125 165.867188 L 133.234375 175.902344 L 135.164063 173.996094 C 136.617188 172.5625 137.488281 171.484375 137.773438 170.761719 C 138.0625 170.042969 138.082031 169.335938 137.835938 168.644531 C 137.589844 167.957031 136.769531 166.90625 135.378906 165.496094 L 133.867188 163.964844 L 138.789063 159.101563 L 155.664063 176.183594 L 150.738281 181.050781 L 149.015625 179.304688 C 147.847656 178.121094 146.863281 177.390625 146.058594 177.109375 C 145.257813 176.832031 144.527344 176.820313 143.878906 177.082031 C 143.226563 177.34375 142.109375 178.253906 140.53125 179.8125 L 138.792969 181.53125 L 147.945313 190.796875 C 148.917969 191.78125 149.554688 192.335938 149.855469 192.453125 C 150.160156 192.574219 150.5 192.5625 150.882813 192.414063 C 151.261719 192.265625 151.894531 191.757813 152.78125 190.882813 L 156.015625 187.6875 C 158.429688 185.304688 160.109375 182.929688 161.050781 180.566406 C 161.992188 178.207031 162.316406 175.574219 162.023438 172.679688 C 161.730469 169.78125 160.835938 166.878906 159.339844 163.964844 L 166.199219 160.792969 L 175.949219 180.789063 L 142.609375 213.71875 L 137.085938 208.125 L 138.050781 207.171875 C 139.335938 205.902344 140.105469 204.949219 140.355469 204.320313 C 140.609375 203.695313 140.589844 203.046875 140.296875 202.386719 C 140.105469 202.003906 139.339844 201.140625 138.011719 199.792969 L 116.324219 177.835938 C 115.144531 176.640625 114.296875 175.9375 113.777344 175.726563 C 113.261719 175.515625 112.746094 175.480469 112.234375 175.625 C 111.722656 175.769531 110.980469 176.324219 110.003906 177.285156 L 108.296875 178.976563 L 102.769531 173.382813 "/>
<path style=" stroke:none;fill-rule:evenodd;fill:rgb(49.804688%,0%,0%);fill-opacity:1;" d="M 218.722656 81.621094 L 242.445313 70 L 245.902344 77.058594 L 243.828125 78.074219 C 242.675781 78.640625 241.976563 79.058594 241.738281 79.328125 C 241.300781 79.839844 241.078125 80.410156 241.070313 81.03125 C 241.058594 81.65625 241.324219 82.511719 241.859375 83.605469 L 256.09375 112.664063 C 256.664063 113.832031 257.066406 114.523438 257.304688 114.738281 C 257.539063 114.957031 257.859375 115.0625 258.261719 115.0625 C 258.664063 115.058594 259.332031 114.832031 260.261719 114.375 C 263.378906 112.847656 265.679688 111.195313 267.160156 109.414063 C 268.636719 107.636719 269.679688 105.429688 270.28125 102.800781 C 270.882813 100.171875 270.9375 96.972656 270.445313 93.203125 L 277.996094 92.355469 L 280.804688 114.339844 L 243.660156 132.535156 L 240.203125 125.476563 L 242.519531 124.339844 C 243.46875 123.875 244.117188 123.390625 244.472656 122.886719 C 244.824219 122.382813 245 121.851563 245 121.292969 C 245 120.738281 244.722656 119.898438 244.175781 118.78125 L 230.066406 89.972656 C 229.46875 88.757813 228.933594 87.933594 228.449219 87.507813 C 227.96875 87.078125 227.46875 86.84375 226.945313 86.796875 C 226.421875 86.753906 225.6875 86.960938 224.742188 87.425781 L 222.179688 88.679688 L 218.722656 81.621094 "/>
<path style=" stroke:none;fill-rule:evenodd;fill:rgb(49.804688%,0%,0%);fill-opacity:1;" d="M 370.828125 30.863281 L 382.941406 29.257813 L 404.8125 70.515625 C 405.996094 72.703125 406.964844 74.019531 407.71875 74.464844 C 408.476563 74.910156 409.761719 74.996094 411.574219 74.722656 L 412.605469 82.515625 L 387.183594 85.886719 L 386.152344 78.09375 L 387.683594 77.847656 C 389.09375 77.660156 390.054688 77.335938 390.566406 76.875 C 391.082031 76.410156 391.300781 75.898438 391.226563 75.335938 C 391.160156 74.855469 390.785156 73.898438 390.101563 72.464844 L 387.804688 67.589844 L 371.507813 69.75 L 370.253906 75.667969 C 370.003906 76.925781 369.902344 77.742188 369.953125 78.117188 C 370.007813 78.546875 370.207031 78.914063 370.550781 79.222656 C 370.890625 79.53125 371.402344 79.722656 372.089844 79.792969 C 372.539063 79.84375 373.75 79.734375 375.722656 79.476563 L 376.753906 87.269531 L 355.984375 90.019531 L 354.949219 82.226563 C 356.28125 82.050781 357.238281 81.804688 357.824219 81.480469 C 358.40625 81.160156 358.863281 80.734375 359.195313 80.199219 C 359.53125 79.667969 359.851563 78.714844 360.164063 77.34375 Z M 373.28125 61.34375 L 383.933594 59.933594 L 376.691406 45.214844 Z M 373.28125 61.34375 "/>
<path style=" stroke:none;fill-rule:evenodd;fill:rgb(49.804688%,0%,0%);fill-opacity:1;" d="M 542.445313 38.550781 L 540.949219 46.261719 L 505.179688 80.035156 L 508.5 80.679688 C 513.078125 81.566406 516.582031 81.789063 519.019531 81.339844 C 521.457031 80.890625 523.855469 79.722656 526.210938 77.835938 C 528.570313 75.953125 530.605469 73.46875 532.3125 70.382813 L 538.8125 74.214844 L 527.824219 93.460938 L 487.191406 85.566406 L 488.695313 77.828125 L 524.523438 44.191406 L 520.109375 43.332031 C 517.113281 42.75 514.628906 42.652344 512.65625 43.042969 C 510.683594 43.429688 508.882813 44.226563 507.253906 45.425781 C 505.625 46.621094 503.101563 49.316406 499.679688 53.5 L 493.582031 49.089844 L 505.417969 31.355469 L 542.445313 38.550781 "/>
<path style=" stroke:none;fill-rule:evenodd;fill:rgb(49.804688%,0%,0%);fill-opacity:1;" d="M 632.007813 71.28125 L 655.402344 83.554688 L 651.753906 90.515625 L 649.625 89.398438 C 648.386719 88.75 647.511719 88.433594 646.992188 88.449219 C 646.46875 88.46875 645.984375 88.671875 645.53125 89.0625 C 645.078125 89.449219 644.488281 90.339844 643.757813 91.730469 L 629.199219 119.492188 C 628.40625 121.003906 627.976563 122.015625 627.910156 122.53125 C 627.847656 123.046875 627.957031 123.503906 628.246094 123.898438 C 628.574219 124.4375 629.222656 124.960938 630.183594 125.464844 L 632.722656 126.796875 L 629.070313 133.757813 L 605.675781 121.488281 L 609.328125 114.527344 L 611.226563 115.523438 C 612.585938 116.234375 613.523438 116.597656 614.046875 116.613281 C 614.566406 116.625 615.042969 116.460938 615.472656 116.121094 C 615.898438 115.78125 616.460938 114.949219 617.152344 113.632813 L 631.769531 85.765625 C 632.585938 84.203125 633.023438 83.128906 633.089844 82.535156 C 633.148438 81.941406 633.019531 81.390625 632.695313 80.886719 C 632.476563 80.523438 631.742188 80.019531 630.5 79.367188 L 628.359375 78.242188 L 632.007813 71.28125 "/>
<path style=" stroke:none;fill-rule:evenodd;fill:rgb(49.804688%,0%,0%);fill-opacity:1;" d="M 737.316406 179.699219 L 755.941406 198.4375 L 750.335938 204.011719 L 748.9375 202.605469 C 748.023438 201.6875 747.3125 201.144531 746.800781 200.980469 C 746.289063 200.8125 745.765625 200.832031 745.226563 201.039063 C 744.6875 201.246094 743.890625 201.878906 742.828125 202.929688 L 730.214844 215.46875 L 724.609375 209.824219 L 726.050781 205.488281 C 723.148438 204.949219 720.476563 204.046875 718.039063 202.785156 C 715.601563 201.523438 713.390625 199.890625 711.402344 197.890625 C 707.921875 194.386719 705.640625 190.308594 704.5625 185.652344 C 703.484375 180.996094 703.714844 176.234375 705.25 171.371094 C 706.789063 166.503906 709.546875 162.09375 713.519531 158.144531 C 717.453125 154.230469 721.804688 151.558594 726.566406 150.128906 C 731.324219 148.695313 736.085938 148.578125 740.84375 149.777344 C 745.605469 150.972656 749.714844 153.316406 753.179688 156.800781 C 754.859375 158.488281 756.308594 160.394531 757.527344 162.519531 C 758.746094 164.644531 759.578125 166.675781 760.019531 168.609375 L 762.820313 167.847656 L 766.648438 171.703125 L 756.785156 188.398438 L 750.019531 185.050781 C 751.222656 180.425781 751.855469 177.085938 751.914063 175.035156 C 751.976563 172.988281 751.660156 171.019531 750.96875 169.132813 C 750.277344 167.246094 749.320313 165.6875 748.097656 164.460938 C 746.363281 162.714844 744.214844 161.609375 741.652344 161.144531 C 739.09375 160.679688 736.359375 161.011719 733.460938 162.144531 C 730.558594 163.277344 727.667969 165.273438 724.789063 168.136719 C 721.621094 171.285156 719.355469 174.496094 717.992188 177.769531 C 716.625 181.042969 716.160156 184.019531 716.589844 186.695313 C 717.015625 189.375 718.164063 191.648438 720.023438 193.523438 C 721.339844 194.847656 722.863281 195.824219 724.601563 196.453125 C 726.335938 197.085938 727.765625 197.277344 728.898438 197.03125 C 730.027344 196.785156 731.179688 196.078125 732.351563 194.914063 L 733.820313 193.453125 C 734.839844 192.441406 735.417969 191.738281 735.5625 191.339844 C 735.746094 190.757813 735.753906 190.210938 735.589844 189.699219 C 735.425781 189.1875 734.851563 188.4375 733.867188 187.449219 L 731.710938 185.277344 L 737.316406 179.699219 "/>
<path style=" stroke:none;fill-rule:evenodd;fill:rgb(49.804688%,0%,0%);fill-opacity:1;" d="M 770.269531 153.753906 L 772.054688 157.335938 C 769.742188 158.160156 767.191406 158.203125 764.402344 157.460938 C 761.609375 156.71875 759.238281 155.410156 757.28125 153.535156 C 753.347656 149.769531 751.957031 144.988281 753.109375 139.1875 L 756.738281 140.789063 C 756.90625 142.367188 757.390625 143.921875 758.191406 145.453125 C 758.992188 146.988281 760.039063 148.375 761.335938 149.613281 C 763.804688 151.980469 766.78125 153.359375 770.269531 153.753906 "/>
<path style=" stroke:none;fill-rule:evenodd;fill:rgb(49.804688%,0%,0%);fill-opacity:1;" d="M 96.148438 261.082031 C 96.148438 253.816406 90.257813 247.925781 82.992188 247.925781 C 75.722656 247.925781 69.832031 253.816406 69.832031 261.082031 C 69.832031 268.351563 75.722656 274.242188 82.992188 274.242188 C 90.257813 274.242188 96.148438 268.351563 96.148438 261.082031 "/>
<path style=" stroke:none;fill-rule:evenodd;fill:rgb(49.804688%,0%,0%);fill-opacity:1;" d="M 805.660156 261.082031 C 805.660156 253.816406 799.769531 247.925781 792.5 247.925781 C 785.234375 247.925781 779.34375 253.816406 779.34375 261.082031 C 779.34375 268.351563 785.234375 274.242188 792.5 274.242188 C 799.769531 274.242188 805.660156 268.351563 805.660156 261.082031 "/>
<path style=" stroke:none;fill-rule:evenodd;fill:rgb(49.804688%,0%,0%);fill-opacity:1;" d="M 76.007813 377.40625 L 83.867188 377.3125 L 84.226563 408.105469 C 84.285156 412.816406 83.753906 416.523438 82.632813 419.226563 C 81.511719 421.933594 79.882813 424.023438 77.746094 425.5 C 75.609375 426.972656 73.257813 427.726563 70.683594 427.757813 C 68.8125 427.777344 67.035156 427.417969 65.34375 426.671875 C 63.65625 425.925781 62.160156 424.839844 60.855469 423.414063 C 59.550781 421.988281 58.46875 420.101563 57.597656 417.746094 C 56.953125 420.296875 56.230469 422.246094 55.433594 423.605469 C 54.316406 425.5625 52.746094 427.121094 50.710938 428.285156 C 48.679688 429.449219 46.40625 430.046875 43.886719 430.074219 C 40.878906 430.113281 38.097656 429.277344 35.542969 427.574219 C 32.992188 425.871094 31.03125 423.441406 29.667969 420.285156 C 28.300781 417.132813 27.582031 412.5 27.511719 406.394531 L 27.175781 377.980469 L 35.039063 377.886719 L 35.0625 380.027344 C 35.078125 381.457031 35.21875 382.421875 35.480469 382.925781 C 35.746094 383.425781 36.113281 383.777344 36.589844 383.980469 C 37.066406 384.183594 38.132813 384.273438 39.78125 384.253906 L 71.371094 383.882813 C 73.050781 383.863281 74.117188 383.746094 74.574219 383.535156 C 75.03125 383.320313 75.394531 382.960938 75.660156 382.449219 C 75.925781 381.941406 76.046875 380.972656 76.03125 379.546875 Z M 61.136719 397.394531 L 61.207031 403.347656 C 61.246094 406.460938 61.542969 408.761719 62.101563 410.246094 C 62.660156 411.730469 63.492188 412.84375 64.601563 413.582031 C 65.707031 414.320313 66.976563 414.683594 68.410156 414.664063 C 69.902344 414.648438 71.171875 414.277344 72.21875 413.550781 C 73.269531 412.824219 74.007813 411.785156 74.4375 410.429688 C 74.867188 409.074219 75.0625 406.660156 75.023438 403.1875 L 74.953125 397.234375 Z M 52.800781 397.492188 L 40.5625 397.636719 C 38.832031 397.683594 37.820313 397.761719 37.523438 397.867188 C 37.148438 398 36.886719 398.21875 36.742188 398.515625 C 36.597656 398.816406 36.53125 399.625 36.546875 400.945313 L 36.59375 404.90625 C 36.621094 407.210938 36.867188 409.113281 37.332031 410.625 C 37.792969 412.132813 38.734375 413.410156 40.152344 414.453125 C 41.570313 415.496094 43.265625 416.007813 45.238281 415.984375 C 46.910156 415.964844 48.324219 415.574219 49.480469 414.808594 C 50.632813 414.046875 51.496094 412.910156 52.074219 411.402344 C 52.648438 409.894531 52.921875 407.601563 52.882813 404.519531 L 52.800781 397.492188 "/>
<path style=" stroke:none;fill-rule:evenodd;fill:rgb(49.804688%,0%,0%);fill-opacity:1;" d="M 105.144531 483.308594 L 128.886719 521.820313 L 116.882813 536.484375 L 110.9375 531.875 C 112.792969 529.328125 114.0625 526.914063 114.742188 524.621094 C 115.421875 522.332031 115.503906 520.210938 114.984375 518.265625 C 114.464844 516.316406 113.53125 514.253906 112.1875 512.070313 L 107.84375 505.027344 L 95.839844 512.429688 L 97.265625 514.738281 C 98.335938 516.476563 99.191406 517.5625 99.828125 518.003906 C 100.464844 518.445313 101.148438 518.625 101.878906 518.539063 C 102.605469 518.453125 103.8125 517.894531 105.496094 516.855469 L 107.332031 515.722656 L 110.964844 521.617188 L 90.527344 534.21875 L 86.894531 528.324219 L 88.980469 527.039063 C 90.394531 526.164063 91.328125 525.371094 91.78125 524.652344 C 92.234375 523.933594 92.40625 523.226563 92.300781 522.53125 C 92.191406 521.839844 91.554688 520.546875 90.390625 518.65625 L 89.109375 516.578125 L 78.023438 523.414063 C 76.84375 524.140625 76.164063 524.636719 75.976563 524.902344 C 75.789063 525.171875 75.726563 525.507813 75.785156 525.910156 C 75.84375 526.316406 76.199219 527.050781 76.851563 528.105469 L 79.238281 531.976563 C 81.019531 534.863281 82.953125 537.03125 85.042969 538.484375 C 87.132813 539.933594 89.625 540.839844 92.511719 541.203125 C 95.402344 541.566406 98.433594 541.351563 101.605469 540.546875 L 103.15625 547.941406 L 81.480469 552.953125 L 56.886719 513.0625 L 63.578125 508.9375 L 64.289063 510.09375 C 65.238281 511.632813 65.992188 512.59375 66.546875 512.980469 C 67.101563 513.367188 67.738281 513.492188 68.449219 513.359375 C 68.863281 513.253906 69.875 512.703125 71.488281 511.710938 L 97.757813 495.515625 C 99.183594 494.632813 100.0625 493.964844 100.382813 493.507813 C 100.707031 493.050781 100.855469 492.554688 100.828125 492.023438 C 100.804688 491.492188 100.433594 490.644531 99.714844 489.480469 L 98.453125 487.433594 L 105.144531 483.308594 "/>
<path style=" stroke:none;fill-rule:evenodd;fill:rgb(49.804688%,0%,0%);fill-opacity:1;" d="M 176.289063 576.871094 L 196.253906 594.175781 L 191.101563 600.117188 L 189.355469 598.601563 C 188.386719 597.761719 187.730469 597.28125 187.386719 597.164063 C 186.742188 596.964844 186.132813 596.980469 185.558594 597.214844 C 184.980469 597.449219 184.292969 598.027344 183.496094 598.949219 L 162.300781 623.398438 C 161.449219 624.382813 160.972656 625.023438 160.863281 625.324219 C 160.757813 625.625 160.785156 625.960938 160.941406 626.332031 C 161.101563 626.703125 161.574219 627.226563 162.355469 627.90625 C 164.980469 630.179688 167.398438 631.648438 169.613281 632.316406 C 171.832031 632.984375 174.269531 633.082031 176.925781 632.609375 C 179.578125 632.132813 182.546875 630.9375 185.824219 629.015625 L 189.550781 635.632813 L 170.410156 646.804688 L 139.15625 619.710938 L 144.304688 613.773438 L 146.257813 615.464844 C 147.050781 616.152344 147.753906 616.5625 148.355469 616.691406 C 148.957031 616.820313 149.515625 616.773438 150.027344 616.554688 C 150.539063 616.339844 151.203125 615.757813 152.019531 614.816406 L 173.03125 590.578125 C 173.917969 589.554688 174.464844 588.738281 174.667969 588.128906 C 174.875 587.515625 174.894531 586.964844 174.734375 586.464844 C 174.570313 585.964844 174.089844 585.371094 173.296875 584.679688 L 171.140625 582.8125 L 176.289063 576.871094 "/>
<path style=" stroke:none;fill-rule:evenodd;fill:rgb(49.804688%,0%,0%);fill-opacity:1;" d="M 266.601563 639.398438 L 308.09375 657.4375 L 306.621094 676.332031 L 299.105469 675.945313 C 299.175781 672.796875 298.835938 670.089844 298.085938 667.820313 C 297.335938 665.550781 296.191406 663.765625 294.652344 662.464844 C 293.113281 661.164063 291.167969 660 288.816406 658.980469 L 281.226563 655.679688 L 275.605469 668.613281 L 278.09375 669.695313 C 279.964844 670.507813 281.289063 670.914063 282.066406 670.910156 C 282.84375 670.90625 283.503906 670.664063 284.054688 670.179688 C 284.601563 669.691406 285.273438 668.542969 286.0625 666.726563 L 286.921875 664.75 L 293.269531 667.511719 L 283.695313 689.53125 L 277.347656 686.773438 L 278.324219 684.523438 C 278.988281 683 279.300781 681.8125 279.261719 680.964844 C 279.222656 680.113281 278.960938 679.4375 278.476563 678.929688 C 277.992188 678.421875 276.730469 677.722656 274.691406 676.839844 L 272.453125 675.867188 L 267.261719 687.808594 C 266.710938 689.078125 266.433594 689.875 266.433594 690.203125 C 266.433594 690.527344 266.574219 690.839844 266.851563 691.136719 C 267.132813 691.4375 267.84375 691.835938 268.980469 692.328125 L 273.152344 694.140625 C 276.261719 695.496094 279.089844 696.167969 281.632813 696.164063 C 284.179688 696.160156 286.738281 695.480469 289.316406 694.128906 C 291.898438 692.777344 294.261719 690.867188 296.40625 688.394531 L 301.902344 693.578125 L 286.980469 710.074219 L 244 691.394531 L 247.132813 684.183594 L 248.378906 684.726563 C 250.039063 685.445313 251.207031 685.804688 251.882813 685.804688 C 252.558594 685.804688 253.152344 685.546875 253.660156 685.027344 C 253.9375 684.707031 254.457031 683.675781 255.210938 681.941406 L 267.515625 653.636719 C 268.183594 652.097656 268.519531 651.046875 268.523438 650.488281 C 268.527344 649.929688 268.367188 649.4375 268.042969 649.019531 C 267.71875 648.597656 266.929688 648.113281 265.671875 647.566406 L 263.46875 646.609375 L 266.601563 639.398438 "/>
<path style=" stroke:none;fill-rule:evenodd;fill:rgb(49.804688%,0%,0%);fill-opacity:1;" d="M 377.222656 674.34375 L 405.53125 676.925781 C 411.957031 677.511719 416.972656 679.042969 420.574219 681.523438 C 424.171875 684 426.910156 687.433594 428.789063 691.820313 C 430.664063 696.207031 431.339844 701.332031 430.804688 707.1875 C 430.433594 711.257813 429.523438 714.851563 428.085938 717.957031 C 426.640625 721.0625 424.667969 723.800781 422.160156 726.167969 C 419.652344 728.539063 417.039063 730.253906 414.3125 731.308594 C 412.261719 732.101563 409.40625 732.644531 405.75 732.9375 C 402.09375 733.226563 399.179688 733.273438 397.011719 733.078125 L 372.074219 730.800781 L 372.785156 722.972656 L 374.652344 723.144531 C 376.230469 723.289063 377.277344 723.246094 377.796875 723.023438 C 378.3125 722.796875 378.753906 722.375 379.125 721.757813 C 379.378906 721.265625 379.585938 720.15625 379.742188 718.429688 L 382.554688 687.617188 C 382.710938 685.890625 382.703125 684.769531 382.527344 684.25 C 382.351563 683.730469 382.023438 683.320313 381.542969 683.019531 C 381.0625 682.714844 380.003906 682.492188 378.375 682.34375 L 376.507813 682.171875 Z M 396.171875 685.210938 L 392.972656 720.304688 C 392.863281 721.492188 392.859375 722.226563 392.964844 722.507813 C 393.136719 722.933594 393.414063 723.238281 393.800781 723.421875 C 394.1875 723.605469 395.140625 723.769531 396.664063 723.90625 C 400.894531 724.292969 404.265625 723.914063 406.777344 722.769531 C 409.289063 721.625 411.417969 719.613281 413.164063 716.738281 C 414.910156 713.863281 415.972656 710.347656 416.351563 706.191406 C 416.722656 702.089844 416.359375 698.460938 415.257813 695.296875 C 414.152344 692.136719 412.636719 689.839844 410.710938 688.414063 C 408.785156 686.984375 405.929688 686.097656 402.132813 685.753906 L 396.171875 685.210938 "/>
<path style=" stroke:none;fill-rule:evenodd;fill:rgb(49.804688%,0%,0%);fill-opacity:1;" d="M 498.261719 676.207031 L 524.183594 671.121094 L 525.695313 678.832031 L 523.339844 679.296875 C 521.96875 679.566406 521.089844 679.867188 520.691406 680.207031 C 520.296875 680.546875 520.046875 681.011719 519.9375 681.597656 C 519.828125 682.183594 519.925781 683.25 520.230469 684.789063 L 526.265625 715.550781 C 526.597656 717.222656 526.894531 718.28125 527.167969 718.726563 C 527.4375 719.167969 527.8125 719.453125 528.285156 719.582031 C 528.878906 719.796875 529.710938 719.800781 530.773438 719.589844 L 533.589844 719.039063 L 535.105469 726.75 L 509.179688 731.839844 L 507.664063 724.125 L 509.769531 723.710938 C 511.277344 723.417969 512.234375 723.113281 512.652344 722.796875 C 513.066406 722.480469 513.335938 722.054688 513.453125 721.519531 C 513.574219 720.988281 513.492188 719.988281 513.203125 718.527344 L 507.144531 687.648438 C 506.804688 685.921875 506.472656 684.808594 506.148438 684.304688 C 505.824219 683.800781 505.378906 683.457031 504.8125 683.261719 C 504.414063 683.121094 503.523438 683.183594 502.148438 683.457031 L 499.773438 683.921875 L 498.261719 676.207031 "/>
<path style=" stroke:none;fill-rule:evenodd;fill:rgb(49.804688%,0%,0%);fill-opacity:1;" d="M 508.464844 658.886719 C 509.964844 658.59375 511.382813 658.921875 512.714844 659.875 C 514.050781 660.828125 514.871094 662.085938 515.179688 663.65625 C 515.472656 665.140625 515.195313 666.535156 514.355469 667.832031 C 513.515625 669.128906 512.359375 669.921875 510.886719 670.210938 C 509.386719 670.503906 507.988281 670.199219 506.6875 669.292969 C 505.390625 668.390625 504.585938 667.140625 504.269531 665.546875 C 503.953125 663.925781 504.199219 662.484375 505.003906 661.222656 C 505.8125 659.960938 506.964844 659.183594 508.464844 658.886719 "/>
<path style=" stroke:none;fill-rule:evenodd;fill:rgb(49.804688%,0%,0%);fill-opacity:1;" d="M 583.808594 653.761719 L 607.804688 641.566406 L 611.367188 648.574219 L 609.570313 649.484375 C 608.304688 650.128906 607.5625 650.636719 607.34375 651.003906 C 607.125 651.371094 607.132813 651.785156 607.363281 652.242188 C 607.683594 652.867188 608.53125 653.617188 609.90625 654.492188 L 621.824219 662.207031 L 623.074219 647.222656 C 623.191406 645.921875 623.257813 645.191406 623.265625 645.035156 C 623.222656 644.722656 623.132813 644.433594 622.996094 644.167969 C 622.789063 643.757813 622.503906 643.523438 622.136719 643.464844 C 621.773438 643.40625 621.105469 643.625 620.128906 644.121094 L 617.660156 645.375 L 614.101563 638.367188 L 633.386719 628.566406 L 636.949219 635.574219 C 635.269531 636.457031 634.1875 637.265625 633.699219 638 C 633.214844 638.734375 632.871094 640.078125 632.667969 642.03125 L 629.765625 668.191406 L 634.347656 677.207031 C 635.15625 678.800781 635.777344 679.78125 636.214844 680.152344 C 636.652344 680.523438 637.164063 680.703125 637.757813 680.6875 C 638.347656 680.675781 639.339844 680.316406 640.730469 679.609375 L 642.433594 678.746094 L 645.996094 685.753906 L 622.402344 697.742188 L 618.839844 690.734375 L 620.121094 690.082031 C 621.785156 689.238281 622.789063 688.582031 623.136719 688.117188 C 623.480469 687.65625 623.636719 687.089844 623.601563 686.421875 C 623.570313 685.757813 623.136719 684.605469 622.300781 682.960938 L 618.289063 675.070313 L 595.066406 661.136719 C 593.238281 660.0625 591.839844 659.511719 590.867188 659.492188 C 590.179688 659.507813 589.011719 659.933594 587.367188 660.765625 L 583.808594 653.761719 "/>
<path style=" stroke:none;fill-rule:evenodd;fill:rgb(49.804688%,0%,0%);fill-opacity:1;" d="M 686.367188 592.484375 L 718.511719 560.644531 L 735.511719 569.023438 L 732.363281 575.859375 C 729.46875 574.625 726.824219 573.9375 724.441406 573.792969 C 722.054688 573.648438 719.972656 574.046875 718.191406 574.992188 C 716.414063 575.9375 714.613281 577.3125 712.789063 579.117188 L 706.910156 584.941406 L 716.835938 594.960938 L 718.765625 593.050781 C 720.214844 591.613281 721.082031 590.535156 721.367188 589.816406 C 721.652344 589.09375 721.671875 588.386719 721.425781 587.699219 C 721.175781 587.007813 720.355469 585.960938 718.964844 584.554688 L 717.449219 583.023438 L 722.367188 578.148438 L 739.265625 595.210938 L 734.347656 600.082031 L 732.621094 598.339844 C 731.449219 597.15625 730.464844 596.429688 729.660156 596.148438 C 728.859375 595.871094 728.132813 595.863281 727.480469 596.125 C 726.828125 596.386719 725.714844 597.296875 724.136719 598.859375 L 722.402344 600.578125 L 731.566406 609.832031 C 732.542969 610.816406 733.179688 611.367188 733.480469 611.488281 C 733.785156 611.609375 734.125 611.59375 734.507813 611.445313 C 734.886719 611.296875 735.519531 610.785156 736.402344 609.910156 L 739.632813 606.710938 C 742.042969 604.324219 743.71875 601.949219 744.65625 599.585938 C 745.597656 597.222656 745.917969 594.589844 745.621094 591.695313 C 745.320313 588.796875 744.421875 585.894531 742.925781 582.984375 L 749.777344 579.804688 L 759.558594 599.78125 L 726.265625 632.761719 L 720.734375 627.179688 L 721.699219 626.222656 C 722.984375 624.949219 723.75 624 724 623.371094 C 724.25 622.742188 724.230469 622.09375 723.9375 621.433594 C 723.742188 621.054688 722.980469 620.191406 721.644531 618.84375 L 699.925781 596.917969 C 698.746094 595.726563 697.894531 595.023438 697.378906 594.8125 C 696.859375 594.601563 696.347656 594.570313 695.835938 594.714844 C 695.324219 594.859375 694.582031 595.414063 693.605469 596.378906 L 691.898438 598.070313 L 686.367188 592.484375 "/>
<path style=" stroke:none;fill-rule:evenodd;fill:rgb(49.804688%,0%,0%);fill-opacity:1;" d="M 776.652344 468.132813 L 795.910156 471.558594 L 794.933594 479.097656 C 789.820313 479.460938 785.6875 480.613281 782.53125 482.550781 C 779.378906 484.484375 777.109375 487.023438 775.722656 490.164063 C 774.824219 492.195313 774.550781 493.984375 774.902344 495.539063 C 775.253906 497.089844 775.960938 498.101563 777.027344 498.574219 C 778.242188 499.109375 779.605469 499.074219 781.117188 498.472656 C 782.617188 497.894531 784.394531 496.390625 786.441406 493.964844 L 793.550781 485.722656 C 797.472656 481.140625 801.242188 478.308594 804.863281 477.21875 C 808.5 476.160156 812.078125 476.410156 815.597656 477.96875 C 820.085938 479.949219 823.121094 483.332031 824.714844 488.109375 C 826.449219 493.4375 826.066406 498.929688 823.566406 504.589844 C 822.402344 507.21875 820.988281 509.480469 819.3125 511.375 C 817.640625 513.269531 815.445313 515.046875 812.730469 516.703125 L 815.757813 519.910156 L 813.417969 525.203125 L 791.753906 519.816406 L 793.027344 512.414063 C 797.800781 512.65625 802.289063 511.730469 806.480469 509.640625 C 810.675781 507.546875 813.644531 504.527344 815.390625 500.574219 C 816.175781 498.800781 816.59375 497.222656 816.640625 495.84375 C 816.6875 494.464844 816.421875 493.296875 815.84375 492.332031 C 815.265625 491.371094 814.53125 490.691406 813.640625 490.300781 C 812.15625 489.644531 810.582031 489.769531 808.910156 490.675781 C 807.230469 491.605469 805.101563 493.585938 802.523438 496.609375 L 796.335938 503.785156 C 795.410156 504.878906 793.960938 506.265625 791.984375 507.953125 C 790.007813 509.640625 788.210938 510.8125 786.589844 511.46875 C 784.964844 512.121094 783.113281 512.441406 781.03125 512.429688 C 778.949219 512.414063 776.941406 511.980469 775.011719 511.125 C 772.257813 509.910156 770.046875 508.0625 768.375 505.582031 C 766.699219 503.101563 765.792969 500.078125 765.648438 496.515625 C 765.503906 492.953125 766.214844 489.394531 767.785156 485.839844 C 769.683594 481.550781 772.550781 478.1875 776.394531 475.75 L 774.40625 473.214844 L 776.652344 468.132813 "/>
<path style=" stroke:none;fill-rule:evenodd;fill:rgb(49.804688%,0%,0%);fill-opacity:1;" d="M 797.515625 403.917969 L 797.453125 377.5 L 805.3125 377.480469 L 805.320313 379.886719 C 805.324219 381.28125 805.453125 382.203125 805.710938 382.65625 C 805.96875 383.105469 806.378906 383.441406 806.933594 383.660156 C 807.488281 383.878906 808.550781 383.984375 810.121094 383.984375 L 841.46875 383.90625 C 843.175781 383.902344 844.269531 383.8125 844.757813 383.628906 C 845.242188 383.445313 845.59375 383.136719 845.808594 382.695313 C 846.132813 382.152344 846.292969 381.339844 846.292969 380.253906 L 846.285156 377.382813 L 854.144531 377.363281 L 854.210938 403.78125 L 846.347656 403.800781 L 846.34375 401.65625 C 846.339844 400.121094 846.222656 399.121094 845.988281 398.652344 C 845.757813 398.1875 845.394531 397.84375 844.890625 397.621094 C 844.390625 397.402344 843.394531 397.292969 841.90625 397.296875 L 810.4375 397.371094 C 808.675781 397.378906 807.519531 397.492188 806.964844 397.714844 C 806.410156 397.933594 805.984375 398.308594 805.6875 398.828125 C 805.472656 399.191406 805.367188 400.074219 805.371094 401.480469 L 805.378906 403.898438 L 797.515625 403.917969 "/>
<path style=" stroke:none;fill-rule:evenodd;fill:rgb(49.804688%,0%,0%);fill-opacity:1;" d="M 782.472656 390.425781 C 782.46875 388.898438 783.0625 387.570313 784.25 386.441406 C 785.4375 385.308594 786.832031 384.742188 788.429688 384.742188 C 789.945313 384.738281 791.261719 385.269531 792.371094 386.34375 C 793.484375 387.414063 794.046875 388.699219 794.046875 390.203125 C 794.050781 391.730469 793.484375 393.046875 792.351563 394.148438 C 791.214844 395.253906 789.835938 395.804688 788.210938 395.808594 C 786.558594 395.8125 785.191406 395.296875 784.105469 394.265625 C 783.019531 393.234375 782.476563 391.953125 782.472656 390.425781 "/>
</g>
</svg>
